<svg xmlns="http://www.w3.org/2000/svg" xmlns:xlink="http://www.w3.org/1999/xlink" width="500" zoomAndPan="magnify" viewBox="0 0 375 374.999991" height="500" preserveAspectRatio="xMidYMid meet" version="1.0"><defs><clipPath id="776e0aebb6"><path d="M 179 33.191406 L 350 33.191406 L 350 294 L 179 294 Z M 179 33.191406 " clip-rule="nonzero"/></clipPath></defs><g clip-path="url(#776e0aebb6)"><path fill="#f68c11" d="M 299.75 151.386719 C 292.5625 151.386719 286.730469 145.550781 286.730469 138.363281 C 286.730469 131.171875 292.5625 125.339844 299.75 125.339844 C 306.941406 125.339844 312.769531 131.171875 312.769531 138.363281 C 312.769531 145.550781 306.941406 151.386719 299.75 151.386719 Z M 276.078125 175.0625 C 268.890625 175.0625 263.0625 169.230469 263.0625 162.039062 C 263.0625 154.847656 268.890625 149.015625 276.078125 149.015625 C 283.269531 149.015625 289.097656 154.847656 289.097656 162.039062 C 289.097656 169.230469 283.269531 175.0625 276.078125 175.0625 Z M 252.410156 151.386719 C 245.21875 151.386719 239.390625 145.550781 239.390625 138.363281 C 239.390625 131.171875 245.21875 125.339844 252.410156 125.339844 C 259.597656 125.339844 265.425781 131.171875 265.425781 138.363281 C 265.425781 145.550781 259.597656 151.386719 252.410156 151.386719 Z M 236.761719 222.328125 C 223.972656 222.328125 213.605469 211.957031 213.605469 199.164062 C 213.605469 186.371094 223.972656 176.003906 236.761719 176.003906 C 249.546875 176.003906 259.914062 186.371094 259.914062 199.164062 C 259.914062 211.957031 249.546875 222.328125 236.761719 222.328125 Z M 276.078125 101.664062 C 283.269531 101.664062 289.097656 107.492188 289.097656 114.683594 C 289.097656 121.878906 283.269531 127.710938 276.078125 127.710938 C 268.890625 127.710938 263.0625 121.878906 263.0625 114.683594 C 263.0625 107.492188 268.890625 101.664062 276.078125 101.664062 Z M 346.140625 195.316406 C 344.347656 182.867188 342.179688 170.242188 338.769531 158.132812 C 332.859375 137.117188 323.21875 117.628906 305.363281 103.222656 C 296.886719 96.382812 287.808594 92.132812 278.339844 89.671875 C 278.679688 88.773438 278.871094 87.800781 278.871094 86.78125 C 278.871094 82.214844 275.167969 78.511719 270.601562 78.511719 L 234.214844 78.511719 C 229.648438 78.511719 225.945312 82.214844 225.945312 86.78125 C 225.945312 87.523438 226.050781 88.238281 226.230469 88.914062 C 225.003906 89.078125 223.777344 89.238281 222.550781 89.414062 C 217.71875 90.097656 212.855469 90.699219 207.964844 91.203125 L 215.5625 33.265625 L 184.671875 129.910156 L 230.640625 129.910156 L 179.953125 232.589844 L 214.855469 232.589844 C 226.804688 232.589844 238.035156 238.429688 244.820312 248.269531 C 272.53125 288.460938 301.027344 306.90625 329.523438 283.316406 C 353.714844 263.285156 350.105469 222.890625 346.140625 195.316406 " fill-opacity="1" fill-rule="nonzero"/></g><path fill="#393536" d="M 138.429688 222.328125 C 125.640625 222.328125 115.273438 211.957031 115.273438 199.164062 C 115.273438 186.371094 125.640625 176.003906 138.429688 176.003906 C 151.21875 176.003906 161.585938 186.371094 161.585938 199.164062 C 161.585938 211.957031 151.21875 222.328125 138.429688 222.328125 Z M 112.609375 149.316406 L 102.609375 139.316406 C 102.046875 138.75 102.046875 137.839844 102.609375 137.277344 L 112.476562 127.410156 C 112.992188 126.890625 113.691406 126.601562 114.421875 126.601562 L 130.03125 126.601562 L 130.03125 150.121094 L 114.554688 150.121094 C 113.824219 150.121094 113.125 149.832031 112.609375 149.316406 Z M 110.507812 169.648438 L 86.992188 169.648438 L 86.992188 154.035156 C 86.992188 153.308594 87.28125 152.609375 87.796875 152.09375 L 97.730469 142.160156 C 98.292969 141.59375 99.207031 141.59375 99.765625 142.160156 L 109.703125 152.09375 C 110.214844 152.609375 110.507812 153.308594 110.507812 154.035156 Z M 82.945312 150.121094 L 67.46875 150.121094 L 67.46875 126.601562 L 83.078125 126.601562 C 83.804688 126.601562 84.503906 126.890625 85.019531 127.410156 L 94.886719 137.277344 C 95.449219 137.839844 95.449219 138.75 94.886719 139.316406 L 84.886719 149.316406 C 84.371094 149.832031 83.671875 150.121094 82.945312 150.121094 Z M 86.992188 107.074219 L 110.507812 107.074219 L 110.507812 122.554688 C 110.507812 123.28125 110.214844 123.984375 109.703125 124.5 L 99.765625 134.433594 C 99.207031 134.996094 98.292969 134.996094 97.730469 134.433594 L 87.796875 124.5 C 87.28125 123.984375 86.992188 123.28125 86.992188 122.554688 Z M 143.523438 298.0625 L 190.445312 154.160156 L 143.523438 154.160156 L 178.355469 92.160156 C 169.722656 91.578125 161.125 90.613281 152.636719 89.414062 C 149.246094 88.933594 145.847656 88.496094 142.457031 88.109375 C 142.527344 87.679688 142.574219 87.234375 142.574219 86.78125 C 142.574219 82.214844 138.871094 78.511719 134.304688 78.511719 L 97.917969 78.511719 C 93.351562 78.511719 89.648438 82.214844 89.648438 86.78125 C 89.648438 88.503906 90.171875 90.097656 91.070312 91.421875 C 83.679688 93.988281 76.566406 97.789062 69.828125 103.222656 C 51.972656 117.628906 42.332031 137.117188 36.417969 158.132812 C 33.011719 170.242188 30.839844 182.867188 29.050781 195.316406 C 25.085938 222.890625 21.476562 263.285156 45.667969 283.316406 C 74.164062 306.90625 102.65625 288.460938 130.367188 248.269531 C 135.898438 240.25 144.378906 234.890625 153.796875 233.179688 L 143.523438 298.0625 " fill-opacity="1" fill-rule="nonzero"/></svg>