<svg xmlns="http://www.w3.org/2000/svg" xmlns:xlink="http://www.w3.org/1999/xlink" width="500" zoomAndPan="magnify" viewBox="0 0 375 374.999991" height="500" preserveAspectRatio="xMidYMid meet" version="1.0"><path stroke-linecap="butt" transform="matrix(0.75, 0, 0, 0.75, -109.083137, 145.499873)" fill="none" stroke-linejoin="miter" d="M 189.636904 23.411629 C 196.991071 23.411629 202.787946 24.906421 207.032738 27.896005 C 211.293155 30.869963 213.418155 34.927255 213.418155 40.067881 C 213.418155 43.609547 212.392113 46.698089 210.329613 49.333506 C 208.272322 51.963715 205.470238 53.755381 201.923363 54.69809 C 206.225446 55.531423 209.616072 57.463715 212.095238 60.47934 C 214.574405 63.484549 215.813989 67.172049 215.813989 71.536633 C 215.813989 77.250175 213.55878 81.755383 209.053572 85.052258 C 204.548363 88.349134 198.423363 90.000175 190.683779 90.000175 L 159.001485 90.000175 L 159.001485 23.411629 Z M 188.892112 50.239756 C 191.74107 50.239756 193.970237 49.588714 195.584821 48.286631 C 197.209821 46.984548 198.022321 45.161631 198.022321 42.807464 C 198.022321 40.531422 197.209821 38.75538 195.584821 37.489755 C 193.970237 36.218922 191.74107 35.614755 188.892112 35.677255 L 174.053569 35.677255 L 174.053569 50.239756 Z M 188.892112 77.73455 C 192.438987 77.73455 195.225446 77.026216 197.256696 75.599133 C 199.282738 74.161633 200.298363 72.172049 200.298363 69.630382 C 200.298363 67.229341 199.282738 65.333507 197.256696 63.942882 C 195.225446 62.547049 192.438987 61.880382 188.892112 61.942882 L 174.053569 61.942882 L 174.053569 77.73455 Z M 293.897327 90.000175 L 277.824409 90.000175 L 272.600451 77.062675 L 241.78274 77.062675 L 236.53274 90.000175 L 221.037947 90.000175 L 249.954616 23.411629 L 265.470242 23.411629 Z M 257.272325 39.114755 L 246.725449 64.984549 L 267.746284 64.984549 Z M 350.975456 44.244964 C 348.699414 41.521006 346.022331 39.385589 342.938997 37.838714 C 339.860872 36.271005 336.77233 35.489755 333.673371 35.489755 C 329.92858 35.489755 326.496288 36.41163 323.386912 38.25538 C 320.287954 40.099131 317.850454 42.604339 316.069204 45.781423 C 314.287953 48.937673 313.397328 52.453298 313.397328 56.32309 C 313.397328 60.192882 314.287953 63.734549 316.069204 66.937674 C 317.850454 70.140799 320.287954 72.682466 323.386912 74.557466 C 326.496288 76.411633 329.92858 77.343925 333.673371 77.343925 C 336.64733 77.343925 339.662955 76.630383 342.730664 75.203299 C 345.813997 73.781424 348.558789 71.859549 350.975456 69.448091 L 359.824415 79.062675 C 356.27754 82.744967 352.105664 85.666842 347.308789 87.817884 C 342.52233 89.968925 337.720247 91.047051 332.907746 91.047051 C 326.371288 91.047051 320.444204 89.541842 315.116079 86.541842 C 309.787953 83.521008 305.600453 79.380383 302.553578 74.114758 C 299.517119 68.849132 298.001494 62.97934 298.001494 56.51059 C 298.001494 50.114756 299.548369 44.317881 302.642119 39.114755 C 305.756703 33.91163 310.022328 29.823088 315.444204 26.84913 C 320.860871 23.864754 326.866079 22.369963 333.465038 22.369963 C 338.293163 22.369963 343.058789 23.364754 347.746289 25.364755 C 352.438998 27.359546 356.43379 30.073088 359.730665 33.494963 Z M 405.678584 51.099131 L 432.412961 90.000175 L 414.433793 90.000175 L 395.204625 62.687674 L 385.704625 73.255383 L 385.704625 90.000175 L 370.657749 90.000175 L 370.657749 23.411629 L 385.704625 23.411629 L 385.704625 54.41684 L 413.277543 23.411629 L 430.787961 23.411629 Z M 442.66817 90.000175 L 442.66817 23.411629 L 457.715046 23.411629 L 457.715046 76.880383 L 486.235881 76.880383 L 486.235881 90.000175 Z M 528.105676 22.369963 C 534.767135 22.369963 540.819218 23.864754 546.267135 26.84913 C 551.720261 29.823088 556.017136 33.927255 559.157761 39.16163 C 562.303595 44.396006 563.871303 50.208506 563.871303 56.60434 C 563.871303 63.01059 562.303595 68.849132 559.157761 74.114758 C 556.017136 79.380383 551.720261 83.521008 546.267135 86.541842 C 540.819218 89.541842 534.767135 91.047051 528.105676 91.047051 C 521.449425 91.047051 515.386925 89.541842 509.923383 86.541842 C 504.470258 83.521008 500.173382 79.396008 497.032757 74.161633 C 493.902549 68.927257 492.340049 63.07309 492.340049 56.60434 C 492.340049 50.208506 493.902549 44.396006 497.032757 39.16163 C 500.173382 33.927255 504.454633 29.823088 509.876508 26.84913 C 515.3088 23.864754 521.386925 22.369963 528.105676 22.369963 Z M 528.293176 35.489755 C 524.605676 35.489755 521.178592 36.427255 518.006717 38.302255 C 514.845258 40.172047 512.345258 42.729339 510.501508 45.963714 C 508.657758 49.187673 507.741091 52.72934 507.741091 56.60434 C 507.741091 60.536632 508.673383 64.119965 510.548383 67.354341 C 512.423383 70.593924 514.923383 73.161633 518.048384 75.067883 C 521.194217 76.968925 524.605676 77.92205 528.293176 77.92205 C 531.965051 77.92205 535.340051 76.98455 538.418177 75.114758 C 541.50151 73.239758 543.93901 70.666841 545.735885 67.401216 C 547.548385 64.13559 548.454636 60.536632 548.454636 56.60434 C 548.454636 52.72934 547.548385 49.187673 545.735885 45.963714 C 543.93901 42.729339 541.50151 40.172047 538.418177 38.302255 C 535.340051 36.427255 531.965051 35.489755 528.293176 35.489755 Z M 620.381724 56.41684 L 633.412974 56.41684 L 633.412974 82.291842 C 629.850474 84.8908 625.595266 87.005384 620.636932 88.630384 C 615.699432 90.239759 610.944223 91.047051 606.376514 91.047051 C 599.720264 91.047051 593.69943 89.541842 588.308805 86.541842 C 582.923388 83.521008 578.673388 79.396008 575.558804 74.161633 C 572.459845 68.927257 570.91297 63.07309 570.91297 56.60434 C 570.91297 50.208506 572.491095 44.396006 575.652554 39.16163 C 578.824429 33.927255 583.183804 29.823088 588.725472 26.84913 C 594.287972 23.864754 600.454639 22.369963 607.235889 22.369963 C 612.194223 22.369963 617.032765 23.260588 621.751515 25.041838 C 626.475474 26.802255 630.548391 29.213713 633.970266 32.260588 L 625.517141 43.015797 C 623.037974 40.661631 620.183807 38.81788 616.944223 37.489755 C 613.709848 36.156422 610.475473 35.489755 607.235889 35.489755 C 603.366097 35.489755 599.829639 36.427255 596.626514 38.302255 C 593.433805 40.172047 590.91818 42.713714 589.07443 45.916839 C 587.235888 49.109548 586.314013 52.672048 586.314013 56.60434 C 586.314013 60.536632 587.251513 64.13559 589.121305 67.401216 C 590.996305 70.666841 593.532763 73.239758 596.741097 75.114758 C 599.944222 76.98455 603.475472 77.92205 607.329639 77.92205 C 609.29839 77.92205 611.418181 77.588716 613.694223 76.92205 C 615.98589 76.260591 618.215057 75.354341 620.381724 74.208508 Z M 620.381724 56.41684 " stroke="#393536" stroke-width="3.567559" stroke-opacity="1" stroke-miterlimit="4"/></svg>