<svg xmlns="http://www.w3.org/2000/svg" xmlns:xlink="http://www.w3.org/1999/xlink" width="500" zoomAndPan="magnify" viewBox="0 0 375 374.999991" height="500" preserveAspectRatio="xMidYMid meet" version="1.0"><defs><g/></defs><g fill="#f68c11" fill-opacity="1"><g transform="translate(4.656061, 211.283711)"><g><path d="M 28.46875 -49.9375 C 33.976562 -49.9375 38.328125 -48.816406 41.515625 -46.578125 C 44.703125 -44.347656 46.296875 -41.304688 46.296875 -37.453125 C 46.296875 -34.785156 45.523438 -32.460938 43.984375 -30.484375 C 42.441406 -28.515625 40.335938 -27.175781 37.671875 -26.46875 C 40.898438 -25.851562 43.441406 -24.414062 45.296875 -22.15625 C 47.148438 -19.894531 48.078125 -17.125 48.078125 -13.84375 C 48.078125 -9.5625 46.390625 -6.179688 43.015625 -3.703125 C 39.640625 -1.234375 35.050781 0 29.25 0 L 5.5 0 L 5.5 -49.9375 Z M 27.890625 -29.828125 C 30.035156 -29.828125 31.710938 -30.3125 32.921875 -31.28125 C 34.140625 -32.257812 34.75 -33.628906 34.75 -35.390625 C 34.75 -37.097656 34.140625 -38.425781 32.921875 -39.375 C 31.710938 -40.332031 30.035156 -40.785156 27.890625 -40.734375 L 16.765625 -40.734375 L 16.765625 -29.828125 Z M 27.890625 -9.203125 C 30.554688 -9.203125 32.648438 -9.734375 34.171875 -10.796875 C 35.691406 -11.867188 36.453125 -13.359375 36.453125 -15.265625 C 36.453125 -17.078125 35.691406 -18.503906 34.171875 -19.546875 C 32.648438 -20.597656 30.554688 -21.097656 27.890625 -21.046875 L 16.765625 -21.046875 L 16.765625 -9.203125 Z M 27.890625 -9.203125 "/></g></g></g><g fill="#f68c11" fill-opacity="1"><g transform="translate(56.885242, 211.283711)"><g><path d="M 54.4375 0 L 42.375 0 L 38.453125 -9.703125 L 15.34375 -9.703125 L 11.421875 0 L -0.21875 0 L 21.46875 -49.9375 L 33.109375 -49.9375 Z M 26.96875 -38.171875 L 19.046875 -18.765625 L 34.8125 -18.765625 Z M 26.96875 -38.171875 "/></g></g></g><g fill="#f68c11" fill-opacity="1"><g transform="translate(112.467925, 211.283711)"><g><path d="M 41.671875 -34.3125 C 39.953125 -36.363281 37.9375 -37.96875 35.625 -39.125 C 33.320312 -40.289062 31.007812 -40.875 28.6875 -40.875 C 25.875 -40.875 23.300781 -40.179688 20.96875 -38.796875 C 18.644531 -37.421875 16.816406 -35.546875 15.484375 -33.171875 C 14.148438 -30.796875 13.484375 -28.15625 13.484375 -25.25 C 13.484375 -22.351562 14.148438 -19.703125 15.484375 -17.296875 C 16.816406 -14.898438 18.644531 -13 20.96875 -11.59375 C 23.300781 -10.1875 25.875 -9.484375 28.6875 -9.484375 C 30.914062 -9.484375 33.179688 -10.019531 35.484375 -11.09375 C 37.796875 -12.164062 39.859375 -13.601562 41.671875 -15.40625 L 48.296875 -8.203125 C 45.628906 -5.441406 42.5 -3.253906 38.90625 -1.640625 C 35.320312 -0.0234375 31.722656 0.78125 28.109375 0.78125 C 23.210938 0.78125 18.765625 -0.347656 14.765625 -2.609375 C 10.773438 -4.867188 7.632812 -7.96875 5.34375 -11.90625 C 3.0625 -15.851562 1.921875 -20.253906 1.921875 -25.109375 C 1.921875 -29.910156 3.085938 -34.257812 5.421875 -38.15625 C 7.753906 -42.0625 10.953125 -45.128906 15.015625 -47.359375 C 19.085938 -49.597656 23.59375 -50.71875 28.53125 -50.71875 C 32.144531 -50.71875 35.710938 -49.96875 39.234375 -48.46875 C 42.753906 -46.976562 45.753906 -44.945312 48.234375 -42.375 Z M 41.671875 -34.3125 "/></g></g></g><g fill="#f68c11" fill-opacity="1"><g transform="translate(163.412788, 211.283711)"><g><path d="M 31.75 -29.171875 L 51.796875 0 L 38.3125 0 L 23.90625 -20.46875 L 16.765625 -12.5625 L 16.765625 0 L 5.5 0 L 5.5 -49.9375 L 16.765625 -49.9375 L 16.765625 -26.6875 L 37.453125 -49.9375 L 50.578125 -49.9375 Z M 31.75 -29.171875 "/></g></g></g><g fill="#f68c11" fill-opacity="1"><g transform="translate(217.425744, 211.283711)"><g><path d="M 5.5 0 L 5.5 -49.9375 L 16.765625 -49.9375 L 16.765625 -9.84375 L 38.171875 -9.84375 L 38.171875 0 Z M 5.5 0 "/></g></g></g><g fill="#f68c11" fill-opacity="1"><g transform="translate(258.238688, 211.283711)"><g><path d="M 28.75 -50.71875 C 33.75 -50.71875 38.289062 -49.597656 42.375 -47.359375 C 46.46875 -45.128906 49.691406 -42.050781 52.046875 -38.125 C 54.398438 -34.207031 55.578125 -29.847656 55.578125 -25.046875 C 55.578125 -20.234375 54.398438 -15.851562 52.046875 -11.90625 C 49.691406 -7.96875 46.46875 -4.867188 42.375 -2.609375 C 38.289062 -0.347656 33.75 0.78125 28.75 0.78125 C 23.757812 0.78125 19.21875 -0.347656 15.125 -2.609375 C 11.03125 -4.867188 7.804688 -7.957031 5.453125 -11.875 C 3.097656 -15.800781 1.921875 -20.191406 1.921875 -25.046875 C 1.921875 -29.847656 3.097656 -34.207031 5.453125 -38.125 C 7.804688 -42.050781 11.015625 -45.128906 15.078125 -47.359375 C 19.148438 -49.597656 23.707031 -50.71875 28.75 -50.71875 Z M 28.890625 -40.875 C 26.128906 -40.875 23.5625 -40.171875 21.1875 -38.765625 C 18.8125 -37.367188 16.929688 -35.457031 15.546875 -33.03125 C 14.171875 -30.601562 13.484375 -27.941406 13.484375 -25.046875 C 13.484375 -22.097656 14.179688 -19.410156 15.578125 -16.984375 C 16.984375 -14.554688 18.863281 -12.628906 21.21875 -11.203125 C 23.570312 -9.773438 26.128906 -9.0625 28.890625 -9.0625 C 31.648438 -9.0625 34.179688 -9.757812 36.484375 -11.15625 C 38.796875 -12.5625 40.628906 -14.488281 41.984375 -16.9375 C 43.335938 -19.394531 44.015625 -22.097656 44.015625 -25.046875 C 44.015625 -27.941406 43.335938 -30.601562 41.984375 -33.03125 C 40.628906 -35.457031 38.796875 -37.367188 36.484375 -38.765625 C 34.179688 -40.171875 31.648438 -40.875 28.890625 -40.875 Z M 28.890625 -40.875 "/></g></g></g><g fill="#f68c11" fill-opacity="1"><g transform="translate(317.174883, 211.283711)"><g><path d="M 39.03125 -25.1875 L 48.796875 -25.1875 L 48.796875 -5.78125 C 46.128906 -3.832031 42.941406 -2.25 39.234375 -1.03125 C 35.523438 0.175781 31.957031 0.78125 28.53125 0.78125 C 23.539062 0.78125 19.023438 -0.347656 14.984375 -2.609375 C 10.941406 -4.867188 7.753906 -7.957031 5.421875 -11.875 C 3.085938 -15.800781 1.921875 -20.191406 1.921875 -25.046875 C 1.921875 -29.847656 3.109375 -34.207031 5.484375 -38.125 C 7.867188 -42.050781 11.140625 -45.128906 15.296875 -47.359375 C 19.460938 -49.597656 24.085938 -50.71875 29.171875 -50.71875 C 32.890625 -50.71875 36.519531 -50.050781 40.0625 -48.71875 C 43.601562 -47.394531 46.660156 -45.59375 49.234375 -43.3125 L 42.875 -35.25 C 41.019531 -37.007812 38.878906 -38.382812 36.453125 -39.375 C 34.023438 -40.375 31.597656 -40.875 29.171875 -40.875 C 26.273438 -40.875 23.625 -40.171875 21.21875 -38.765625 C 18.820312 -37.367188 16.929688 -35.46875 15.546875 -33.0625 C 14.171875 -30.664062 13.484375 -27.992188 13.484375 -25.046875 C 13.484375 -22.097656 14.179688 -19.394531 15.578125 -16.9375 C 16.984375 -14.488281 18.890625 -12.5625 21.296875 -11.15625 C 23.703125 -9.757812 26.351562 -9.0625 29.25 -9.0625 C 30.726562 -9.0625 32.320312 -9.3125 34.03125 -9.8125 C 35.738281 -10.3125 37.40625 -10.988281 39.03125 -11.84375 Z M 39.03125 -25.1875 "/></g></g></g><g fill="#393536" fill-opacity="1"><g transform="translate(109.25175, 227.304679)"><g><path d="M 5.59375 -3.21875 L 6.234375 -3.21875 L 6.234375 -0.765625 C 5.929688 -0.503906 5.578125 -0.300781 5.171875 -0.15625 C 4.765625 -0.0078125 4.332031 0.0625 3.875 0.0625 C 3.226562 0.0625 2.644531 -0.078125 2.125 -0.359375 C 1.613281 -0.648438 1.210938 -1.046875 0.921875 -1.546875 C 0.628906 -2.046875 0.484375 -2.601562 0.484375 -3.21875 C 0.484375 -3.84375 0.628906 -4.40625 0.921875 -4.90625 C 1.210938 -5.40625 1.613281 -5.796875 2.125 -6.078125 C 2.644531 -6.359375 3.234375 -6.5 3.890625 -6.5 C 4.378906 -6.5 4.828125 -6.421875 5.234375 -6.265625 C 5.648438 -6.109375 6 -5.875 6.28125 -5.5625 L 5.859375 -5.140625 C 5.347656 -5.640625 4.695312 -5.890625 3.90625 -5.890625 C 3.382812 -5.890625 2.914062 -5.773438 2.5 -5.546875 C 2.082031 -5.316406 1.753906 -4.992188 1.515625 -4.578125 C 1.273438 -4.171875 1.15625 -3.71875 1.15625 -3.21875 C 1.15625 -2.71875 1.273438 -2.265625 1.515625 -1.859375 C 1.753906 -1.453125 2.082031 -1.128906 2.5 -0.890625 C 2.914062 -0.660156 3.382812 -0.546875 3.90625 -0.546875 C 4.5625 -0.546875 5.125 -0.710938 5.59375 -1.046875 Z M 5.59375 -3.21875 "/></g></g></g><g fill="#393536" fill-opacity="1"><g transform="translate(122.728724, 227.304679)"><g><path d="M 5.09375 -1.71875 L 1.5 -1.71875 L 0.734375 0 L 0.015625 0 L 2.96875 -6.4375 L 3.640625 -6.4375 L 6.578125 0 L 5.859375 0 Z M 4.84375 -2.265625 L 3.296875 -5.734375 L 1.75 -2.265625 Z M 4.84375 -2.265625 "/></g></g></g><g fill="#393536" fill-opacity="1"><g transform="translate(135.690634, 227.304679)"><g><path d="M 7.734375 -6.4375 L 7.734375 0 L 7.09375 0 L 7.09375 -5.15625 L 4.5625 -0.8125 L 4.234375 -0.8125 L 1.703125 -5.125 L 1.703125 0 L 1.046875 0 L 1.046875 -6.4375 L 1.609375 -6.4375 L 4.40625 -1.671875 L 7.171875 -6.4375 Z M 7.734375 -6.4375 "/></g></g></g><g fill="#393536" fill-opacity="1"><g transform="translate(150.841579, 227.304679)"><g><path d="M 5.609375 -0.59375 L 5.609375 0 L 1.046875 0 L 1.046875 -6.4375 L 5.46875 -6.4375 L 5.46875 -5.859375 L 1.734375 -5.859375 L 1.734375 -3.5625 L 5.0625 -3.5625 L 5.0625 -2.984375 L 1.734375 -2.984375 L 1.734375 -0.59375 Z M 5.609375 -0.59375 "/></g></g></g><g fill="#393536" fill-opacity="1"><g transform="translate(163.36201, 227.304679)"><g/></g></g><g fill="#393536" fill-opacity="1"><g transform="translate(172.139018, 227.304679)"><g><path d="M 2.296875 -5.859375 L 0.03125 -5.859375 L 0.03125 -6.4375 L 5.25 -6.4375 L 5.25 -5.859375 L 2.984375 -5.859375 L 2.984375 0 L 2.296875 0 Z M 2.296875 -5.859375 "/></g></g></g><g fill="#393536" fill-opacity="1"><g transform="translate(183.785676, 227.304679)"><g><path d="M 5.453125 0 L 3.96875 -2.078125 C 3.8125 -2.054688 3.640625 -2.046875 3.453125 -2.046875 L 1.734375 -2.046875 L 1.734375 0 L 1.046875 0 L 1.046875 -6.4375 L 3.453125 -6.4375 C 4.273438 -6.4375 4.921875 -6.238281 5.390625 -5.84375 C 5.859375 -5.457031 6.09375 -4.921875 6.09375 -4.234375 C 6.09375 -3.734375 5.960938 -3.304688 5.703125 -2.953125 C 5.453125 -2.609375 5.09375 -2.359375 4.625 -2.203125 L 6.1875 0 Z M 3.4375 -2.625 C 4.082031 -2.625 4.570312 -2.765625 4.90625 -3.046875 C 5.238281 -3.328125 5.40625 -3.722656 5.40625 -4.234375 C 5.40625 -4.753906 5.238281 -5.15625 4.90625 -5.4375 C 4.570312 -5.71875 4.082031 -5.859375 3.4375 -5.859375 L 1.734375 -5.859375 L 1.734375 -2.625 Z M 3.4375 -2.625 "/></g></g></g><g fill="#393536" fill-opacity="1"><g transform="translate(196.802772, 227.304679)"><g><path d="M 5.09375 -1.71875 L 1.5 -1.71875 L 0.734375 0 L 0.015625 0 L 2.96875 -6.4375 L 3.640625 -6.4375 L 6.578125 0 L 5.859375 0 Z M 4.84375 -2.265625 L 3.296875 -5.734375 L 1.75 -2.265625 Z M 4.84375 -2.265625 "/></g></g></g><g fill="#393536" fill-opacity="1"><g transform="translate(209.76468, 227.304679)"><g><path d="M 3.84375 0.0625 C 3.207031 0.0625 2.632812 -0.078125 2.125 -0.359375 C 1.613281 -0.648438 1.210938 -1.046875 0.921875 -1.546875 C 0.628906 -2.046875 0.484375 -2.601562 0.484375 -3.21875 C 0.484375 -3.84375 0.628906 -4.40625 0.921875 -4.90625 C 1.210938 -5.40625 1.613281 -5.796875 2.125 -6.078125 C 2.644531 -6.359375 3.222656 -6.5 3.859375 -6.5 C 4.335938 -6.5 4.773438 -6.414062 5.171875 -6.25 C 5.578125 -6.09375 5.925781 -5.863281 6.21875 -5.5625 L 5.78125 -5.125 C 5.28125 -5.632812 4.644531 -5.890625 3.875 -5.890625 C 3.363281 -5.890625 2.898438 -5.769531 2.484375 -5.53125 C 2.066406 -5.300781 1.738281 -4.984375 1.5 -4.578125 C 1.269531 -4.171875 1.15625 -3.71875 1.15625 -3.21875 C 1.15625 -2.71875 1.269531 -2.265625 1.5 -1.859375 C 1.738281 -1.453125 2.066406 -1.128906 2.484375 -0.890625 C 2.898438 -0.660156 3.363281 -0.546875 3.875 -0.546875 C 4.644531 -0.546875 5.28125 -0.804688 5.78125 -1.328125 L 6.21875 -0.890625 C 5.925781 -0.585938 5.578125 -0.351562 5.171875 -0.1875 C 4.765625 -0.0195312 4.320312 0.0625 3.84375 0.0625 Z M 3.84375 0.0625 "/></g></g></g><g fill="#393536" fill-opacity="1"><g transform="translate(222.744984, 227.304679)"><g><path d="M 3.046875 -3.03125 L 1.734375 -1.6875 L 1.734375 0 L 1.046875 0 L 1.046875 -6.4375 L 1.734375 -6.4375 L 1.734375 -2.546875 L 5.515625 -6.4375 L 6.296875 -6.4375 L 3.5 -3.53125 L 6.484375 0 L 5.671875 0 Z M 3.046875 -3.03125 "/></g></g></g><g fill="#393536" fill-opacity="1"><g transform="translate(235.651705, 227.304679)"><g><path d="M 1.046875 -6.4375 L 1.734375 -6.4375 L 1.734375 0 L 1.046875 0 Z M 1.046875 -6.4375 "/></g></g></g><g fill="#393536" fill-opacity="1"><g transform="translate(244.796615, 227.304679)"><g><path d="M 6.4375 -6.4375 L 6.4375 0 L 5.875 0 L 1.734375 -5.234375 L 1.734375 0 L 1.046875 0 L 1.046875 -6.4375 L 1.609375 -6.4375 L 5.765625 -1.21875 L 5.765625 -6.4375 Z M 6.4375 -6.4375 "/></g></g></g><g fill="#393536" fill-opacity="1"><g transform="translate(258.641493, 227.304679)"><g><path d="M 5.59375 -3.21875 L 6.234375 -3.21875 L 6.234375 -0.765625 C 5.929688 -0.503906 5.578125 -0.300781 5.171875 -0.15625 C 4.765625 -0.0078125 4.332031 0.0625 3.875 0.0625 C 3.226562 0.0625 2.644531 -0.078125 2.125 -0.359375 C 1.613281 -0.648438 1.210938 -1.046875 0.921875 -1.546875 C 0.628906 -2.046875 0.484375 -2.601562 0.484375 -3.21875 C 0.484375 -3.84375 0.628906 -4.40625 0.921875 -4.90625 C 1.210938 -5.40625 1.613281 -5.796875 2.125 -6.078125 C 2.644531 -6.359375 3.234375 -6.5 3.890625 -6.5 C 4.378906 -6.5 4.828125 -6.421875 5.234375 -6.265625 C 5.648438 -6.109375 6 -5.875 6.28125 -5.5625 L 5.859375 -5.140625 C 5.347656 -5.640625 4.695312 -5.890625 3.90625 -5.890625 C 3.382812 -5.890625 2.914062 -5.773438 2.5 -5.546875 C 2.082031 -5.316406 1.753906 -4.992188 1.515625 -4.578125 C 1.273438 -4.171875 1.15625 -3.71875 1.15625 -3.21875 C 1.15625 -2.71875 1.273438 -2.265625 1.515625 -1.859375 C 1.753906 -1.453125 2.082031 -1.128906 2.5 -0.890625 C 2.914062 -0.660156 3.382812 -0.546875 3.90625 -0.546875 C 4.5625 -0.546875 5.125 -0.710938 5.59375 -1.046875 Z M 5.59375 -3.21875 "/></g></g></g></svg>