<svg xmlns="http://www.w3.org/2000/svg" xmlns:xlink="http://www.w3.org/1999/xlink" width="500" zoomAndPan="magnify" viewBox="0 0 375 374.999991" height="500" preserveAspectRatio="xMidYMid meet" version="1.0"><defs><g/><clipPath id="2decc215e5"><path d="M 179 50.734375 L 350 50.734375 L 350 312 L 179 312 Z M 179 50.734375 " clip-rule="nonzero"/></clipPath></defs><g clip-path="url(#2decc215e5)"><path fill="#f68c11" d="M 299.75 168.929688 C 292.5625 168.929688 286.730469 163.097656 286.730469 155.90625 C 286.730469 148.714844 292.5625 142.886719 299.75 142.886719 C 306.941406 142.886719 312.769531 148.714844 312.769531 155.90625 C 312.769531 163.097656 306.941406 168.929688 299.75 168.929688 Z M 276.078125 192.605469 C 268.890625 192.605469 263.0625 186.773438 263.0625 179.582031 C 263.0625 172.390625 268.890625 166.5625 276.078125 166.5625 C 283.269531 166.5625 289.097656 172.390625 289.097656 179.582031 C 289.097656 186.773438 283.269531 192.605469 276.078125 192.605469 Z M 252.410156 168.929688 C 245.21875 168.929688 239.390625 163.097656 239.390625 155.90625 C 239.390625 148.714844 245.21875 142.886719 252.410156 142.886719 C 259.597656 142.886719 265.425781 148.714844 265.425781 155.90625 C 265.425781 163.097656 259.597656 168.929688 252.410156 168.929688 Z M 236.761719 239.871094 C 223.972656 239.871094 213.605469 229.5 213.605469 216.707031 C 213.605469 203.914062 223.972656 193.550781 236.761719 193.550781 C 249.546875 193.550781 259.914062 203.914062 259.914062 216.707031 C 259.914062 229.5 249.546875 239.871094 236.761719 239.871094 Z M 276.078125 119.207031 C 283.269531 119.207031 289.097656 125.039062 289.097656 132.230469 C 289.097656 139.421875 283.269531 145.253906 276.078125 145.253906 C 268.890625 145.253906 263.0625 139.421875 263.0625 132.230469 C 263.0625 125.039062 268.890625 119.207031 276.078125 119.207031 Z M 346.140625 212.863281 C 344.347656 200.410156 342.179688 187.789062 338.769531 175.679688 C 332.859375 154.660156 323.21875 135.171875 305.363281 120.765625 C 296.886719 113.929688 287.808594 109.679688 278.339844 107.21875 C 278.679688 106.316406 278.871094 105.34375 278.871094 104.328125 C 278.871094 99.757812 275.167969 96.058594 270.601562 96.058594 L 234.214844 96.058594 C 229.648438 96.058594 225.945312 99.757812 225.945312 104.328125 C 225.945312 105.066406 226.050781 105.78125 226.230469 106.460938 C 225.003906 106.625 223.777344 106.785156 222.550781 106.960938 C 217.71875 107.640625 212.855469 108.246094 207.964844 108.75 L 215.5625 50.808594 L 184.671875 147.453125 L 230.640625 147.453125 L 179.953125 250.132812 L 214.855469 250.132812 C 226.804688 250.132812 238.035156 255.972656 244.820312 265.816406 C 272.53125 306.007812 301.027344 324.449219 329.523438 300.863281 C 353.714844 280.828125 350.105469 240.433594 346.140625 212.863281 " fill-opacity="1" fill-rule="nonzero"/></g><path fill="#393536" d="M 138.429688 239.871094 C 125.640625 239.871094 115.273438 229.5 115.273438 216.707031 C 115.273438 203.914062 125.640625 193.550781 138.429688 193.550781 C 151.21875 193.550781 161.585938 203.914062 161.585938 216.707031 C 161.585938 229.5 151.21875 239.871094 138.429688 239.871094 Z M 112.609375 166.863281 L 102.609375 156.859375 C 102.046875 156.296875 102.046875 155.382812 102.609375 154.820312 L 112.476562 144.953125 C 112.992188 144.4375 113.691406 144.144531 114.421875 144.144531 L 130.03125 144.144531 L 130.03125 167.667969 L 114.554688 167.667969 C 113.824219 167.667969 113.125 167.375 112.609375 166.863281 Z M 110.507812 187.195312 L 86.992188 187.195312 L 86.992188 171.582031 C 86.992188 170.851562 87.28125 170.15625 87.796875 169.636719 L 97.730469 159.703125 C 98.292969 159.140625 99.207031 159.140625 99.765625 159.703125 L 109.703125 169.636719 C 110.214844 170.15625 110.507812 170.851562 110.507812 171.582031 Z M 82.945312 167.667969 L 67.46875 167.667969 L 67.46875 144.144531 L 83.078125 144.144531 C 83.804688 144.144531 84.503906 144.4375 85.019531 144.953125 L 94.886719 154.820312 C 95.449219 155.382812 95.449219 156.296875 94.886719 156.859375 L 84.886719 166.863281 C 84.371094 167.375 83.671875 167.667969 82.945312 167.667969 Z M 86.992188 124.617188 L 110.507812 124.617188 L 110.507812 140.097656 C 110.507812 140.828125 110.214844 141.527344 109.703125 142.042969 L 99.765625 151.976562 C 99.207031 152.539062 98.292969 152.539062 97.730469 151.976562 L 87.796875 142.042969 C 87.28125 141.527344 86.992188 140.828125 86.992188 140.097656 Z M 143.523438 315.609375 L 190.445312 171.707031 L 143.523438 171.707031 L 178.355469 109.703125 C 169.722656 109.121094 161.125 108.15625 152.636719 106.960938 C 149.246094 106.476562 145.847656 106.042969 142.457031 105.65625 C 142.527344 105.222656 142.574219 104.78125 142.574219 104.328125 C 142.574219 99.757812 138.871094 96.058594 134.304688 96.058594 L 97.917969 96.058594 C 93.351562 96.058594 89.648438 99.757812 89.648438 104.328125 C 89.648438 106.050781 90.171875 107.640625 91.070312 108.96875 C 83.679688 111.53125 76.566406 115.332031 69.828125 120.765625 C 51.972656 135.171875 42.332031 154.660156 36.417969 175.679688 C 33.011719 187.789062 30.839844 200.410156 29.050781 212.863281 C 25.085938 240.433594 21.476562 280.828125 45.667969 300.863281 C 74.164062 324.449219 102.65625 306.007812 130.367188 265.816406 C 135.898438 257.796875 144.378906 252.433594 153.796875 250.722656 L 143.523438 315.609375 " fill-opacity="1" fill-rule="nonzero"/><g fill="#f68c11" fill-opacity="1"><g transform="translate(4.656061, 211.283728)"><g><path d="M 28.46875 -49.9375 C 33.976562 -49.9375 38.328125 -48.816406 41.515625 -46.578125 C 44.703125 -44.347656 46.296875 -41.304688 46.296875 -37.453125 C 46.296875 -34.785156 45.523438 -32.460938 43.984375 -30.484375 C 42.441406 -28.515625 40.335938 -27.175781 37.671875 -26.46875 C 40.898438 -25.851562 43.441406 -24.414062 45.296875 -22.15625 C 47.148438 -19.894531 48.078125 -17.125 48.078125 -13.84375 C 48.078125 -9.5625 46.390625 -6.179688 43.015625 -3.703125 C 39.640625 -1.234375 35.050781 0 29.25 0 L 5.5 0 L 5.5 -49.9375 Z M 27.890625 -29.828125 C 30.035156 -29.828125 31.710938 -30.3125 32.921875 -31.28125 C 34.140625 -32.257812 34.75 -33.628906 34.75 -35.390625 C 34.75 -37.097656 34.140625 -38.425781 32.921875 -39.375 C 31.710938 -40.332031 30.035156 -40.785156 27.890625 -40.734375 L 16.765625 -40.734375 L 16.765625 -29.828125 Z M 27.890625 -9.203125 C 30.554688 -9.203125 32.648438 -9.734375 34.171875 -10.796875 C 35.691406 -11.867188 36.453125 -13.359375 36.453125 -15.265625 C 36.453125 -17.078125 35.691406 -18.503906 34.171875 -19.546875 C 32.648438 -20.597656 30.554688 -21.097656 27.890625 -21.046875 L 16.765625 -21.046875 L 16.765625 -9.203125 Z M 27.890625 -9.203125 "/></g></g></g><g fill="#f68c11" fill-opacity="1"><g transform="translate(56.885242, 211.283728)"><g><path d="M 54.4375 0 L 42.375 0 L 38.453125 -9.703125 L 15.34375 -9.703125 L 11.421875 0 L -0.21875 0 L 21.46875 -49.9375 L 33.109375 -49.9375 Z M 26.96875 -38.171875 L 19.046875 -18.765625 L 34.8125 -18.765625 Z M 26.96875 -38.171875 "/></g></g></g><g fill="#f68c11" fill-opacity="1"><g transform="translate(112.467925, 211.283728)"><g><path d="M 41.671875 -34.3125 C 39.953125 -36.363281 37.9375 -37.96875 35.625 -39.125 C 33.320312 -40.289062 31.007812 -40.875 28.6875 -40.875 C 25.875 -40.875 23.300781 -40.179688 20.96875 -38.796875 C 18.644531 -37.421875 16.816406 -35.546875 15.484375 -33.171875 C 14.148438 -30.796875 13.484375 -28.15625 13.484375 -25.25 C 13.484375 -22.351562 14.148438 -19.703125 15.484375 -17.296875 C 16.816406 -14.898438 18.644531 -13 20.96875 -11.59375 C 23.300781 -10.1875 25.875 -9.484375 28.6875 -9.484375 C 30.914062 -9.484375 33.179688 -10.019531 35.484375 -11.09375 C 37.796875 -12.164062 39.859375 -13.601562 41.671875 -15.40625 L 48.296875 -8.203125 C 45.628906 -5.441406 42.5 -3.253906 38.90625 -1.640625 C 35.320312 -0.0234375 31.722656 0.78125 28.109375 0.78125 C 23.210938 0.78125 18.765625 -0.347656 14.765625 -2.609375 C 10.773438 -4.867188 7.632812 -7.96875 5.34375 -11.90625 C 3.0625 -15.851562 1.921875 -20.253906 1.921875 -25.109375 C 1.921875 -29.910156 3.085938 -34.257812 5.421875 -38.15625 C 7.753906 -42.0625 10.953125 -45.128906 15.015625 -47.359375 C 19.085938 -49.597656 23.59375 -50.71875 28.53125 -50.71875 C 32.144531 -50.71875 35.710938 -49.96875 39.234375 -48.46875 C 42.753906 -46.976562 45.753906 -44.945312 48.234375 -42.375 Z M 41.671875 -34.3125 "/></g></g></g><g fill="#f68c11" fill-opacity="1"><g transform="translate(163.412788, 211.283728)"><g><path d="M 31.75 -29.171875 L 51.796875 0 L 38.3125 0 L 23.90625 -20.46875 L 16.765625 -12.5625 L 16.765625 0 L 5.5 0 L 5.5 -49.9375 L 16.765625 -49.9375 L 16.765625 -26.6875 L 37.453125 -49.9375 L 50.578125 -49.9375 Z M 31.75 -29.171875 "/></g></g></g><g fill="#f68c11" fill-opacity="1"><g transform="translate(217.425744, 211.283728)"><g><path d="M 5.5 0 L 5.5 -49.9375 L 16.765625 -49.9375 L 16.765625 -9.84375 L 38.171875 -9.84375 L 38.171875 0 Z M 5.5 0 "/></g></g></g><g fill="#f68c11" fill-opacity="1"><g transform="translate(258.238688, 211.283728)"><g><path d="M 28.75 -50.71875 C 33.75 -50.71875 38.289062 -49.597656 42.375 -47.359375 C 46.46875 -45.128906 49.691406 -42.050781 52.046875 -38.125 C 54.398438 -34.207031 55.578125 -29.847656 55.578125 -25.046875 C 55.578125 -20.234375 54.398438 -15.851562 52.046875 -11.90625 C 49.691406 -7.96875 46.46875 -4.867188 42.375 -2.609375 C 38.289062 -0.347656 33.75 0.78125 28.75 0.78125 C 23.757812 0.78125 19.21875 -0.347656 15.125 -2.609375 C 11.03125 -4.867188 7.804688 -7.957031 5.453125 -11.875 C 3.097656 -15.800781 1.921875 -20.191406 1.921875 -25.046875 C 1.921875 -29.847656 3.097656 -34.207031 5.453125 -38.125 C 7.804688 -42.050781 11.015625 -45.128906 15.078125 -47.359375 C 19.148438 -49.597656 23.707031 -50.71875 28.75 -50.71875 Z M 28.890625 -40.875 C 26.128906 -40.875 23.5625 -40.171875 21.1875 -38.765625 C 18.8125 -37.367188 16.929688 -35.457031 15.546875 -33.03125 C 14.171875 -30.601562 13.484375 -27.941406 13.484375 -25.046875 C 13.484375 -22.097656 14.179688 -19.410156 15.578125 -16.984375 C 16.984375 -14.554688 18.863281 -12.628906 21.21875 -11.203125 C 23.570312 -9.773438 26.128906 -9.0625 28.890625 -9.0625 C 31.648438 -9.0625 34.179688 -9.757812 36.484375 -11.15625 C 38.796875 -12.5625 40.628906 -14.488281 41.984375 -16.9375 C 43.335938 -19.394531 44.015625 -22.097656 44.015625 -25.046875 C 44.015625 -27.941406 43.335938 -30.601562 41.984375 -33.03125 C 40.628906 -35.457031 38.796875 -37.367188 36.484375 -38.765625 C 34.179688 -40.171875 31.648438 -40.875 28.890625 -40.875 Z M 28.890625 -40.875 "/></g></g></g><g fill="#f68c11" fill-opacity="1"><g transform="translate(317.174883, 211.283728)"><g><path d="M 39.03125 -25.1875 L 48.796875 -25.1875 L 48.796875 -5.78125 C 46.128906 -3.832031 42.941406 -2.25 39.234375 -1.03125 C 35.523438 0.175781 31.957031 0.78125 28.53125 0.78125 C 23.539062 0.78125 19.023438 -0.347656 14.984375 -2.609375 C 10.941406 -4.867188 7.753906 -7.957031 5.421875 -11.875 C 3.085938 -15.800781 1.921875 -20.191406 1.921875 -25.046875 C 1.921875 -29.847656 3.109375 -34.207031 5.484375 -38.125 C 7.867188 -42.050781 11.140625 -45.128906 15.296875 -47.359375 C 19.460938 -49.597656 24.085938 -50.71875 29.171875 -50.71875 C 32.890625 -50.71875 36.519531 -50.050781 40.0625 -48.71875 C 43.601562 -47.394531 46.660156 -45.59375 49.234375 -43.3125 L 42.875 -35.25 C 41.019531 -37.007812 38.878906 -38.382812 36.453125 -39.375 C 34.023438 -40.375 31.597656 -40.875 29.171875 -40.875 C 26.273438 -40.875 23.625 -40.171875 21.21875 -38.765625 C 18.820312 -37.367188 16.929688 -35.46875 15.546875 -33.0625 C 14.171875 -30.664062 13.484375 -27.992188 13.484375 -25.046875 C 13.484375 -22.097656 14.179688 -19.394531 15.578125 -16.9375 C 16.984375 -14.488281 18.890625 -12.5625 21.296875 -11.15625 C 23.703125 -9.757812 26.351562 -9.0625 29.25 -9.0625 C 30.726562 -9.0625 32.320312 -9.3125 34.03125 -9.8125 C 35.738281 -10.3125 37.40625 -10.988281 39.03125 -11.84375 Z M 39.03125 -25.1875 "/></g></g></g><g fill="#393536" fill-opacity="1"><g transform="translate(104.223013, 332.316713)"><g><path d="M 5.59375 -3.21875 L 6.234375 -3.21875 L 6.234375 -0.765625 C 5.929688 -0.503906 5.578125 -0.300781 5.171875 -0.15625 C 4.765625 -0.0078125 4.332031 0.0625 3.875 0.0625 C 3.226562 0.0625 2.644531 -0.078125 2.125 -0.359375 C 1.613281 -0.648438 1.210938 -1.046875 0.921875 -1.546875 C 0.628906 -2.046875 0.484375 -2.601562 0.484375 -3.21875 C 0.484375 -3.84375 0.628906 -4.40625 0.921875 -4.90625 C 1.210938 -5.40625 1.613281 -5.796875 2.125 -6.078125 C 2.644531 -6.359375 3.234375 -6.5 3.890625 -6.5 C 4.378906 -6.5 4.828125 -6.421875 5.234375 -6.265625 C 5.648438 -6.109375 6 -5.875 6.28125 -5.5625 L 5.859375 -5.140625 C 5.347656 -5.640625 4.695312 -5.890625 3.90625 -5.890625 C 3.382812 -5.890625 2.914062 -5.773438 2.5 -5.546875 C 2.082031 -5.316406 1.753906 -4.992188 1.515625 -4.578125 C 1.273438 -4.171875 1.15625 -3.71875 1.15625 -3.21875 C 1.15625 -2.71875 1.273438 -2.265625 1.515625 -1.859375 C 1.753906 -1.453125 2.082031 -1.128906 2.5 -0.890625 C 2.914062 -0.660156 3.382812 -0.546875 3.90625 -0.546875 C 4.5625 -0.546875 5.125 -0.710938 5.59375 -1.046875 Z M 5.59375 -3.21875 "/></g></g></g><g fill="#393536" fill-opacity="1"><g transform="translate(117.699987, 332.316713)"><g><path d="M 5.09375 -1.71875 L 1.5 -1.71875 L 0.734375 0 L 0.015625 0 L 2.96875 -6.4375 L 3.640625 -6.4375 L 6.578125 0 L 5.859375 0 Z M 4.84375 -2.265625 L 3.296875 -5.734375 L 1.75 -2.265625 Z M 4.84375 -2.265625 "/></g></g></g><g fill="#393536" fill-opacity="1"><g transform="translate(130.661898, 332.316713)"><g><path d="M 7.734375 -6.4375 L 7.734375 0 L 7.09375 0 L 7.09375 -5.15625 L 4.5625 -0.8125 L 4.234375 -0.8125 L 1.703125 -5.125 L 1.703125 0 L 1.046875 0 L 1.046875 -6.4375 L 1.609375 -6.4375 L 4.40625 -1.671875 L 7.171875 -6.4375 Z M 7.734375 -6.4375 "/></g></g></g><g fill="#393536" fill-opacity="1"><g transform="translate(145.812842, 332.316713)"><g><path d="M 5.609375 -0.59375 L 5.609375 0 L 1.046875 0 L 1.046875 -6.4375 L 5.46875 -6.4375 L 5.46875 -5.859375 L 1.734375 -5.859375 L 1.734375 -3.5625 L 5.0625 -3.5625 L 5.0625 -2.984375 L 1.734375 -2.984375 L 1.734375 -0.59375 Z M 5.609375 -0.59375 "/></g></g></g><g fill="#393536" fill-opacity="1"><g transform="translate(158.333273, 332.316713)"><g/></g></g><g fill="#393536" fill-opacity="1"><g transform="translate(167.110282, 332.316713)"><g><path d="M 2.296875 -5.859375 L 0.03125 -5.859375 L 0.03125 -6.4375 L 5.25 -6.4375 L 5.25 -5.859375 L 2.984375 -5.859375 L 2.984375 0 L 2.296875 0 Z M 2.296875 -5.859375 "/></g></g></g><g fill="#393536" fill-opacity="1"><g transform="translate(178.756939, 332.316713)"><g><path d="M 5.453125 0 L 3.96875 -2.078125 C 3.8125 -2.054688 3.640625 -2.046875 3.453125 -2.046875 L 1.734375 -2.046875 L 1.734375 0 L 1.046875 0 L 1.046875 -6.4375 L 3.453125 -6.4375 C 4.273438 -6.4375 4.921875 -6.238281 5.390625 -5.84375 C 5.859375 -5.457031 6.09375 -4.921875 6.09375 -4.234375 C 6.09375 -3.734375 5.960938 -3.304688 5.703125 -2.953125 C 5.453125 -2.609375 5.09375 -2.359375 4.625 -2.203125 L 6.1875 0 Z M 3.4375 -2.625 C 4.082031 -2.625 4.570312 -2.765625 4.90625 -3.046875 C 5.238281 -3.328125 5.40625 -3.722656 5.40625 -4.234375 C 5.40625 -4.753906 5.238281 -5.15625 4.90625 -5.4375 C 4.570312 -5.71875 4.082031 -5.859375 3.4375 -5.859375 L 1.734375 -5.859375 L 1.734375 -2.625 Z M 3.4375 -2.625 "/></g></g></g><g fill="#393536" fill-opacity="1"><g transform="translate(191.774035, 332.316713)"><g><path d="M 5.09375 -1.71875 L 1.5 -1.71875 L 0.734375 0 L 0.015625 0 L 2.96875 -6.4375 L 3.640625 -6.4375 L 6.578125 0 L 5.859375 0 Z M 4.84375 -2.265625 L 3.296875 -5.734375 L 1.75 -2.265625 Z M 4.84375 -2.265625 "/></g></g></g><g fill="#393536" fill-opacity="1"><g transform="translate(204.735943, 332.316713)"><g><path d="M 3.84375 0.0625 C 3.207031 0.0625 2.632812 -0.078125 2.125 -0.359375 C 1.613281 -0.648438 1.210938 -1.046875 0.921875 -1.546875 C 0.628906 -2.046875 0.484375 -2.601562 0.484375 -3.21875 C 0.484375 -3.84375 0.628906 -4.40625 0.921875 -4.90625 C 1.210938 -5.40625 1.613281 -5.796875 2.125 -6.078125 C 2.644531 -6.359375 3.222656 -6.5 3.859375 -6.5 C 4.335938 -6.5 4.773438 -6.414062 5.171875 -6.25 C 5.578125 -6.09375 5.925781 -5.863281 6.21875 -5.5625 L 5.78125 -5.125 C 5.28125 -5.632812 4.644531 -5.890625 3.875 -5.890625 C 3.363281 -5.890625 2.898438 -5.769531 2.484375 -5.53125 C 2.066406 -5.300781 1.738281 -4.984375 1.5 -4.578125 C 1.269531 -4.171875 1.15625 -3.71875 1.15625 -3.21875 C 1.15625 -2.71875 1.269531 -2.265625 1.5 -1.859375 C 1.738281 -1.453125 2.066406 -1.128906 2.484375 -0.890625 C 2.898438 -0.660156 3.363281 -0.546875 3.875 -0.546875 C 4.644531 -0.546875 5.28125 -0.804688 5.78125 -1.328125 L 6.21875 -0.890625 C 5.925781 -0.585938 5.578125 -0.351562 5.171875 -0.1875 C 4.765625 -0.0195312 4.320312 0.0625 3.84375 0.0625 Z M 3.84375 0.0625 "/></g></g></g><g fill="#393536" fill-opacity="1"><g transform="translate(217.716248, 332.316713)"><g><path d="M 3.046875 -3.03125 L 1.734375 -1.6875 L 1.734375 0 L 1.046875 0 L 1.046875 -6.4375 L 1.734375 -6.4375 L 1.734375 -2.546875 L 5.515625 -6.4375 L 6.296875 -6.4375 L 3.5 -3.53125 L 6.484375 0 L 5.671875 0 Z M 3.046875 -3.03125 "/></g></g></g><g fill="#393536" fill-opacity="1"><g transform="translate(230.622968, 332.316713)"><g><path d="M 1.046875 -6.4375 L 1.734375 -6.4375 L 1.734375 0 L 1.046875 0 Z M 1.046875 -6.4375 "/></g></g></g><g fill="#393536" fill-opacity="1"><g transform="translate(239.767878, 332.316713)"><g><path d="M 6.4375 -6.4375 L 6.4375 0 L 5.875 0 L 1.734375 -5.234375 L 1.734375 0 L 1.046875 0 L 1.046875 -6.4375 L 1.609375 -6.4375 L 5.765625 -1.21875 L 5.765625 -6.4375 Z M 6.4375 -6.4375 "/></g></g></g><g fill="#393536" fill-opacity="1"><g transform="translate(253.612756, 332.316713)"><g><path d="M 5.59375 -3.21875 L 6.234375 -3.21875 L 6.234375 -0.765625 C 5.929688 -0.503906 5.578125 -0.300781 5.171875 -0.15625 C 4.765625 -0.0078125 4.332031 0.0625 3.875 0.0625 C 3.226562 0.0625 2.644531 -0.078125 2.125 -0.359375 C 1.613281 -0.648438 1.210938 -1.046875 0.921875 -1.546875 C 0.628906 -2.046875 0.484375 -2.601562 0.484375 -3.21875 C 0.484375 -3.84375 0.628906 -4.40625 0.921875 -4.90625 C 1.210938 -5.40625 1.613281 -5.796875 2.125 -6.078125 C 2.644531 -6.359375 3.234375 -6.5 3.890625 -6.5 C 4.378906 -6.5 4.828125 -6.421875 5.234375 -6.265625 C 5.648438 -6.109375 6 -5.875 6.28125 -5.5625 L 5.859375 -5.140625 C 5.347656 -5.640625 4.695312 -5.890625 3.90625 -5.890625 C 3.382812 -5.890625 2.914062 -5.773438 2.5 -5.546875 C 2.082031 -5.316406 1.753906 -4.992188 1.515625 -4.578125 C 1.273438 -4.171875 1.15625 -3.71875 1.15625 -3.21875 C 1.15625 -2.71875 1.273438 -2.265625 1.515625 -1.859375 C 1.753906 -1.453125 2.082031 -1.128906 2.5 -0.890625 C 2.914062 -0.660156 3.382812 -0.546875 3.90625 -0.546875 C 4.5625 -0.546875 5.125 -0.710938 5.59375 -1.046875 Z M 5.59375 -3.21875 "/></g></g></g><path stroke-linecap="butt" transform="matrix(0.75, 0, 0, 0.75, -109.083137, 145.121534)" fill="none" stroke-linejoin="miter" d="M 189.636904 23.416081 C 196.991071 23.416081 202.787946 24.905664 207.032738 27.895248 C 211.293155 30.869206 213.418155 34.926498 213.418155 40.067123 C 213.418155 43.613999 212.392113 46.70254 210.329613 49.332749 C 208.272322 51.962957 205.470238 53.754624 201.923363 54.697333 C 206.225446 55.535874 209.616072 57.462958 212.095238 60.478583 C 214.574405 63.483792 215.813989 67.171292 215.813989 71.535875 C 215.813989 77.249417 213.55878 81.754626 209.053572 85.051501 C 204.548363 88.353585 198.423363 89.999418 190.683779 89.999418 L 159.001485 89.999418 L 159.001485 23.416081 Z M 188.892112 50.238999 C 191.74107 50.238999 193.970237 49.587957 195.584821 48.285874 C 197.209821 46.988999 198.022321 45.160874 198.022321 42.806707 C 198.022321 40.530665 197.209821 38.759832 195.584821 37.488998 C 193.970237 36.218165 191.74107 35.613998 188.892112 35.676498 L 174.053569 35.676498 L 174.053569 50.238999 Z M 188.892112 77.739001 C 192.438987 77.739001 195.225446 77.025459 197.256696 75.598376 C 199.282738 74.160876 200.298363 72.171292 200.298363 69.629625 C 200.298363 67.233792 199.282738 65.33275 197.256696 63.942125 C 195.225446 62.546291 192.438987 61.879625 188.892112 61.942125 L 174.053569 61.942125 L 174.053569 77.739001 Z M 293.897327 89.999418 L 277.824409 89.999418 L 272.600451 77.061917 L 241.78274 77.061917 L 236.53274 89.999418 L 221.037947 89.999418 L 249.954616 23.416081 L 265.470242 23.416081 Z M 257.272325 39.113998 L 246.725449 64.989 L 267.746284 64.989 Z M 350.975456 44.244207 C 348.699414 41.520248 346.022331 39.384832 342.938997 37.837957 C 339.860872 36.270248 336.77233 35.488998 333.673371 35.488998 C 329.92858 35.488998 326.496288 36.410873 323.386912 38.254623 C 320.287954 40.098373 317.850454 42.603582 316.069204 45.780665 C 314.287953 48.936916 313.397328 52.452541 313.397328 56.322333 C 313.397328 60.192125 314.287953 63.733792 316.069204 66.936917 C 317.850454 70.140042 320.287954 72.681709 323.386912 74.556709 C 326.496288 76.410876 329.92858 77.343167 333.673371 77.343167 C 336.64733 77.343167 339.662955 76.629626 342.730664 75.207751 C 345.813997 73.780667 348.558789 71.858792 350.975456 69.447334 L 359.824415 79.061918 C 356.27754 82.744209 352.105664 85.666085 347.308789 87.817126 C 342.52233 89.968168 337.720247 91.046293 332.907746 91.046293 C 326.371288 91.046293 320.444204 89.541085 315.116079 86.541085 C 309.787953 83.520251 305.600453 79.379626 302.553578 74.114001 C 299.517119 68.848375 298.001494 62.983792 298.001494 56.509833 C 298.001494 50.113999 299.548369 44.317124 302.642119 39.113998 C 305.756703 33.910873 310.022328 29.822331 315.444204 26.848372 C 320.860871 23.863997 326.866079 22.369206 333.465038 22.369206 C 338.293163 22.369206 343.058789 23.369206 347.746289 25.363997 C 352.438998 27.363998 356.43379 30.072331 359.730665 33.494206 Z M 405.678584 51.098374 L 432.412961 89.999418 L 414.433793 89.999418 L 395.204625 62.686916 L 385.704625 73.254626 L 385.704625 89.999418 L 370.657749 89.999418 L 370.657749 23.416081 L 385.704625 23.416081 L 385.704625 54.421291 L 413.277543 23.416081 L 430.787961 23.416081 Z M 442.66817 89.999418 L 442.66817 23.416081 L 457.715046 23.416081 L 457.715046 76.879626 L 486.235881 76.879626 L 486.235881 89.999418 Z M 528.105676 22.369206 C 534.767135 22.369206 540.819218 23.863997 546.267135 26.848372 C 551.720261 29.822331 556.017136 33.926498 559.157761 39.160873 C 562.303595 44.395249 563.871303 50.207749 563.871303 56.603583 C 563.871303 63.009833 562.303595 68.848375 559.157761 74.114001 C 556.017136 79.379626 551.720261 83.520251 546.267135 86.541085 C 540.819218 89.541085 534.767135 91.046293 528.105676 91.046293 C 521.449425 91.046293 515.386925 89.541085 509.923383 86.541085 C 504.470258 83.520251 500.173382 79.395251 497.032757 74.160876 C 493.902549 68.9265 492.340049 63.072333 492.340049 56.603583 C 492.340049 50.207749 493.902549 44.395249 497.032757 39.160873 C 500.173382 33.926498 504.454633 29.822331 509.876508 26.848372 C 515.3088 23.863997 521.386925 22.369206 528.105676 22.369206 Z M 528.293176 35.488998 C 524.605676 35.488998 521.178592 36.426498 518.006717 38.301498 C 514.845258 40.176498 512.345258 42.728582 510.501508 45.962957 C 508.657758 49.186916 507.741091 52.733791 507.741091 56.603583 C 507.741091 60.535875 508.673383 64.119208 510.548383 67.353583 C 512.423383 70.593167 514.923383 73.160876 518.048384 75.067126 C 521.194217 76.968167 524.605676 77.921292 528.293176 77.921292 C 531.965051 77.921292 535.340051 76.983792 538.418177 75.114001 C 541.50151 73.239001 543.93901 70.671292 545.735885 67.400458 C 547.548385 64.134833 548.454636 60.535875 548.454636 56.603583 C 548.454636 52.733791 547.548385 49.186916 545.735885 45.962957 C 543.93901 42.728582 541.50151 40.176498 538.418177 38.301498 C 535.340051 36.426498 531.965051 35.488998 528.293176 35.488998 Z M 620.381724 56.416083 L 633.412974 56.416083 L 633.412974 82.291084 C 629.850474 84.890043 625.595266 87.004626 620.636932 88.629627 C 615.699432 90.239002 610.944223 91.046293 606.376514 91.046293 C 599.720264 91.046293 593.69943 89.541085 588.308805 86.541085 C 582.923388 83.520251 578.673388 79.395251 575.558804 74.160876 C 572.459845 68.9265 570.91297 63.072333 570.91297 56.603583 C 570.91297 50.207749 572.491095 44.395249 575.652554 39.160873 C 578.824429 33.926498 583.183804 29.822331 588.725472 26.848372 C 594.287972 23.863997 600.454639 22.369206 607.235889 22.369206 C 612.194223 22.369206 617.032765 23.259831 621.751515 25.041081 C 626.475474 26.806706 630.548391 29.212956 633.970266 32.259831 L 625.517141 43.01504 C 623.037974 40.660873 620.183807 38.817123 616.944223 37.488998 C 613.709848 36.155665 610.475473 35.488998 607.235889 35.488998 C 603.366097 35.488998 599.829639 36.426498 596.626514 38.301498 C 593.433805 40.176498 590.91818 42.712957 589.07443 45.92129 C 587.235888 49.108791 586.314013 52.671291 586.314013 56.603583 C 586.314013 60.535875 587.251513 64.134833 589.121305 67.400458 C 590.996305 70.671292 593.532763 73.239001 596.741097 75.114001 C 599.944222 76.983792 603.475472 77.921292 607.329639 77.921292 C 609.29839 77.921292 611.418181 77.587959 613.694223 76.926501 C 615.98589 76.259834 618.215057 75.353584 620.381724 74.207751 Z M 620.381724 56.416083 " stroke="#393536" stroke-width="3.567559" stroke-opacity="1" stroke-miterlimit="4"/></svg>